<svg width="41" height="40" viewBox="0 0 41 40" fill="none" xmlns="http://www.w3.org/2000/svg">
<mask id="path-1-inside-1_1_573" fill="white">
<path d="M5.8437 20.7711C5.45318 20.3805 5.45318 19.7474 5.8437 19.3569L7.73143 17.4691C10.0746 15.126 13.8736 15.126 16.2167 17.4691L18.1044 19.3569C18.495 19.7474 18.495 20.3805 18.1044 20.7711L16.2167 22.6588C13.8736 25.0019 10.0746 25.0019 7.73143 22.6588L5.8437 20.7711Z"/>
</mask>
<path d="M5.8437 20.7711C5.45318 20.3805 5.45318 19.7474 5.8437 19.3569L7.73143 17.4691C10.0746 15.126 13.8736 15.126 16.2167 17.4691L18.1044 19.3569C18.495 19.7474 18.495 20.3805 18.1044 20.7711L16.2167 22.6588C13.8736 25.0019 10.0746 25.0019 7.73143 22.6588L5.8437 20.7711Z" stroke="#f7ccac" stroke-width="5" mask="url(#path-1-inside-1_1_573)"/>
<mask id="path-2-inside-2_1_573" fill="white">
<path d="M21.9318 20.7711C21.5413 20.3805 21.5413 19.7474 21.9318 19.3569L23.8196 17.4691C26.1627 15.126 29.9617 15.126 32.3048 17.4691L34.1926 19.3569C34.5831 19.7474 34.5831 20.3805 34.1926 20.7711L32.3048 22.6588C29.9617 25.0019 26.1627 25.0019 23.8196 22.6588L21.9318 20.7711Z"/>
</mask>
<path d="M21.9318 20.7711C21.5413 20.3805 21.5413 19.7474 21.9318 19.3569L23.8196 17.4691C26.1627 15.126 29.9617 15.126 32.3048 17.4691L34.1926 19.3569C34.5831 19.7474 34.5831 20.3805 34.1926 20.7711L32.3048 22.6588C29.9617 25.0019 26.1627 25.0019 23.8196 22.6588L21.9318 20.7711Z" stroke="#f7ccac" stroke-width="5" mask="url(#path-2-inside-2_1_573)"/>
<mask id="path-3-inside-3_1_573" fill="white">
<path d="M19.3111 5.88972C19.7016 5.4992 20.3348 5.4992 20.7253 5.88972L22.613 7.77745C24.9562 10.1206 24.9562 13.9196 22.613 16.2627L20.7253 18.1505C20.3348 18.541 19.7016 18.541 19.3111 18.1505L17.4234 16.2627C15.0802 13.9196 15.0802 10.1206 17.4234 7.77745L19.3111 5.88972Z"/>
</mask>
<path d="M19.3111 5.88972C19.7016 5.4992 20.3348 5.4992 20.7253 5.88972L22.613 7.77745C24.9562 10.1206 24.9562 13.9196 22.613 16.2627L20.7253 18.1505C20.3348 18.541 19.7016 18.541 19.3111 18.1505L17.4234 16.2627C15.0802 13.9196 15.0802 10.1206 17.4234 7.77745L19.3111 5.88972Z" stroke="#f7ccac" stroke-width="5" mask="url(#path-3-inside-3_1_573)"/>
<mask id="path-4-inside-4_1_573" fill="white">
<path d="M19.2054 21.1788C19.5959 20.7883 20.2291 20.7883 20.6196 21.1788L22.5073 23.0665C24.8505 25.4097 24.8505 29.2087 22.5073 31.5518L20.6196 33.4395C20.2291 33.83 19.5959 33.83 19.2054 33.4395L17.3176 31.5518C14.9745 29.2087 14.9745 25.4097 17.3176 23.0665L19.2054 21.1788Z"/>
</mask>
<path d="M19.2054 21.1788C19.5959 20.7883 20.2291 20.7883 20.6196 21.1788L22.5073 23.0665C24.8505 25.4097 24.8505 29.2087 22.5073 31.5518L20.6196 33.4395C20.2291 33.83 19.5959 33.83 19.2054 33.4395L17.3176 31.5518C14.9745 29.2087 14.9745 25.4097 17.3176 23.0665L19.2054 21.1788Z" stroke="#f7ccac" stroke-width="5" mask="url(#path-4-inside-4_1_573)"/>
<path d="M39.0527 20C39.0527 20.6211 38.7879 21.1878 38.296 21.9639C38.2241 22.0774 38.1445 22.1987 38.0602 22.3273C37.6294 22.9842 37.0748 23.83 36.7901 24.7701C36.4978 25.7353 36.394 26.8122 36.3058 27.7269C36.2821 27.9733 36.2594 28.208 36.2346 28.4256C36.1053 29.5562 35.9149 30.3733 35.4696 30.9829C35.0281 31.5873 34.3054 32.0224 33.2718 32.4964C33.076 32.5862 32.8638 32.6791 32.6413 32.7766C31.803 33.1438 30.8178 33.5753 30.0087 34.1456C29.2008 34.7151 28.6036 35.5149 28.1543 36.1166C28.0799 36.2162 28.0096 36.3104 27.943 36.3972C27.4139 37.0873 27.0288 37.4723 26.5272 37.6505C25.7217 37.9366 24.8356 37.9556 23.75 37.8654C23.4486 37.8404 23.1161 37.8044 22.7643 37.7663C21.9482 37.678 21.0281 37.5784 20.1514 37.5784C19.2746 37.5784 18.3546 37.678 17.5384 37.7663C17.1866 37.8044 16.8541 37.8404 16.5527 37.8654C15.4671 37.9556 14.581 37.9366 13.7755 37.6505C13.0443 37.3907 12.4456 36.9271 11.7765 36.2913C11.6146 36.1373 11.4403 35.9642 11.2553 35.7803C10.7359 35.2642 10.132 34.6641 9.47816 34.17C8.82829 33.6789 8.05784 33.2491 7.38336 32.8729C7.15839 32.7474 6.94409 32.6278 6.74851 32.5139C5.89162 32.015 5.25293 31.5576 4.83309 30.9829C4.35038 30.322 4.08128 29.445 3.85943 28.3248C3.80122 28.0308 3.74489 27.7079 3.68585 27.3694C3.53938 26.5298 3.37627 25.5947 3.12656 24.7701C2.8728 23.932 2.4545 23.1548 2.11476 22.5235C2.02633 22.3592 1.94323 22.2048 1.86974 22.0618C1.48322 21.3096 1.25 20.6988 1.25 20C1.25 19.336 1.54841 18.594 2.05534 17.6378C2.14617 17.4665 2.24671 17.2838 2.35197 17.0925C2.76679 16.3386 3.25509 15.4512 3.5126 14.6008C3.7982 13.6576 3.90448 12.6979 3.99183 11.9091C4.01667 11.6847 4.03998 11.4742 4.06545 11.2819C4.18836 10.3535 4.36653 9.65581 4.83309 9.0171C5.23902 8.46139 5.85582 8.04444 6.71253 7.58278C6.88412 7.49031 7.07101 7.39363 7.26762 7.29193C7.96502 6.93117 8.78478 6.50711 9.47816 5.98313C10.1692 5.46093 10.796 4.80579 11.3301 4.24752C11.4964 4.0737 11.6537 3.90927 11.8012 3.76117C12.4781 3.0814 13.0677 2.60093 13.7755 2.34948C14.581 2.06331 15.4671 2.04436 16.5527 2.1345C16.8541 2.15953 17.1867 2.19553 17.5385 2.23361C18.3546 2.32197 19.2746 2.42157 20.1514 2.42157C21.0281 2.42157 21.9481 2.32197 22.7642 2.23361C23.1161 2.19552 23.4486 2.15953 23.75 2.1345C24.8356 2.04436 25.7217 2.06331 26.5272 2.34948C27.0049 2.51915 27.3854 2.91333 27.9241 3.65398C27.9874 3.74106 28.0543 3.83535 28.1249 3.93496C28.5757 4.57076 29.1805 5.42369 30.0087 6.00753C30.8538 6.60324 31.9364 7.0443 32.8346 7.4102C33.0442 7.49561 33.2438 7.57693 33.428 7.65516C34.5627 8.13713 35.1621 8.51359 35.4066 8.92192L36.479 8.27977L35.4066 8.92192C35.7585 9.50963 35.9434 10.2542 36.1163 11.2624C36.148 11.4477 36.1795 11.6432 36.2123 11.8467C36.3467 12.682 36.5029 13.6522 36.7901 14.6008C37.0476 15.4512 37.5359 16.3386 37.9508 17.0925C38.056 17.2838 38.1566 17.4665 38.2474 17.6378C38.7543 18.594 39.0527 19.336 39.0527 20Z" stroke="#f7ccac" stroke-width="2.5"/>
</svg>
